<svg width="30" height="31" viewBox="0 0 30 31" fill="none" xmlns="http://www.w3.org/2000/svg">
<g filter="url(#filter0_d)">
<path d="M15 1.5C9.20156 1.5 4.5 6.20156 4.5 12C4.5 17.7984 9.20156 22.5 15 22.5C20.7984 22.5 25.5 17.7984 25.5 12C25.5 6.20156 20.7984 1.5 15 1.5ZM15 20.7188C10.1859 20.7188 6.28125 16.8141 6.28125 12C6.28125 7.18594 10.1859 3.28125 15 3.28125C19.8141 3.28125 23.7188 7.18594 23.7188 12C23.7188 16.8141 19.8141 20.7188 15 20.7188Z" fill="#1890FF"/>
<path d="M15 3.28125C10.1859 3.28125 6.28125 7.18594 6.28125 12C6.28125 16.8141 10.1859 20.7188 15 20.7188C19.8141 20.7188 23.7188 16.8141 23.7188 12C23.7188 7.18594 19.8141 3.28125 15 3.28125ZM9.75 9.86719C9.75601 9.5728 9.87718 9.29249 10.0875 9.08641C10.2978 8.88034 10.5805 8.76492 10.875 8.76492C11.1695 8.76492 11.4522 8.88034 11.6625 9.08641C11.8728 9.29249 11.994 9.5728 12 9.86719C11.994 10.1616 11.8728 10.4419 11.6625 10.648C11.4522 10.854 11.1695 10.9695 10.875 10.9695C10.5805 10.9695 10.2978 10.854 10.0875 10.648C9.87718 10.4419 9.75601 10.1616 9.75 9.86719ZM15 16.2422C12.9961 16.2422 11.3531 14.6648 11.25 12.6891C11.2487 12.6637 11.2526 12.6383 11.2615 12.6144C11.2703 12.5906 11.284 12.5688 11.3015 12.5504C11.319 12.532 11.3401 12.5173 11.3635 12.5073C11.3869 12.4973 11.4121 12.4922 11.4375 12.4922H12.5648C12.6633 12.4922 12.7477 12.5672 12.7547 12.6656C12.8438 13.8258 13.8164 14.7422 15 14.7422C16.1836 14.7422 17.1586 13.8258 17.2453 12.6656C17.2523 12.5672 17.3367 12.4922 17.4352 12.4922H18.5625C18.5879 12.4922 18.6131 12.4973 18.6365 12.5073C18.6599 12.5173 18.681 12.532 18.6985 12.5504C18.716 12.5688 18.7297 12.5906 18.7385 12.6144C18.7474 12.6383 18.7513 12.6637 18.75 12.6891C18.6469 14.6648 17.0039 16.2422 15 16.2422ZM19.125 10.9922C18.8306 10.9862 18.5503 10.865 18.3442 10.6547C18.1382 10.4444 18.0227 10.1616 18.0227 9.86719C18.0227 9.57273 18.1382 9.29001 18.3442 9.07969C18.5503 8.86936 18.8306 8.7482 19.125 8.74219C19.4194 8.7482 19.6997 8.86936 19.9058 9.07969C20.1118 9.29001 20.2273 9.57273 20.2273 9.86719C20.2273 10.1616 20.1118 10.4444 19.9058 10.6547C19.6997 10.865 19.4194 10.9862 19.125 10.9922Z" fill="#E6F7FF"/>
<path d="M9.75 9.86719C9.75 10.1656 9.86853 10.4517 10.0795 10.6627C10.2905 10.8737 10.5766 10.9922 10.875 10.9922C11.1734 10.9922 11.4595 10.8737 11.6705 10.6627C11.8815 10.4517 12 10.1656 12 9.86719C12 9.56882 11.8815 9.28267 11.6705 9.07169C11.4595 8.86071 11.1734 8.74219 10.875 8.74219C10.5766 8.74219 10.2905 8.86071 10.0795 9.07169C9.86853 9.28267 9.75 9.56882 9.75 9.86719ZM18.5625 12.4922H17.4352C17.3367 12.4922 17.2523 12.5672 17.2453 12.6656C17.1586 13.8258 16.1836 14.7422 15 14.7422C13.8164 14.7422 12.8438 13.8258 12.7547 12.6656C12.7477 12.5672 12.6633 12.4922 12.5648 12.4922H11.4375C11.4121 12.4922 11.3869 12.4973 11.3635 12.5073C11.3401 12.5173 11.319 12.532 11.3015 12.5504C11.284 12.5688 11.2703 12.5906 11.2615 12.6144C11.2526 12.6383 11.2487 12.6637 11.25 12.6891C11.3531 14.6648 12.9961 16.2422 15 16.2422C17.0039 16.2422 18.6469 14.6648 18.75 12.6891C18.7513 12.6637 18.7474 12.6383 18.7385 12.6144C18.7297 12.5906 18.716 12.5688 18.6985 12.5504C18.681 12.532 18.6599 12.5173 18.6365 12.5073C18.6131 12.4973 18.5879 12.4922 18.5625 12.4922ZM18 9.86719C18 10.1656 18.1185 10.4517 18.3295 10.6627C18.5405 10.8737 18.8266 10.9922 19.125 10.9922C19.4234 10.9922 19.7095 10.8737 19.9205 10.6627C20.1315 10.4517 20.25 10.1656 20.25 9.86719C20.25 9.56882 20.1315 9.28267 19.9205 9.07169C19.7095 8.86071 19.4234 8.74219 19.125 8.74219C18.8266 8.74219 18.5405 8.86071 18.3295 9.07169C18.1185 9.28267 18 9.56882 18 9.86719Z" fill="#1890FF"/>
</g>
<defs>
<filter id="filter0_d" x="-1" y="0" width="32" height="32" filterUnits="userSpaceOnUse" color-interpolation-filters="sRGB">
<feFlood flood-opacity="0" result="BackgroundImageFix"/>
<feColorMatrix in="SourceAlpha" type="matrix" values="0 0 0 0 0 0 0 0 0 0 0 0 0 0 0 0 0 0 127 0"/>
<feOffset dy="4"/>
<feGaussianBlur stdDeviation="2"/>
<feColorMatrix type="matrix" values="0 0 0 0 0 0 0 0 0 0 0 0 0 0 0 0 0 0 0.25 0"/>
<feBlend mode="normal" in2="BackgroundImageFix" result="effect1_dropShadow"/>
<feBlend mode="normal" in="SourceGraphic" in2="effect1_dropShadow" result="shape"/>
</filter>
</defs>
</svg>
